<svg width="90" height="24" viewBox="0 0 90 24" fill="none" xmlns="http://www.w3.org/2000/svg">
<path style="fill:white" stroke="white" d="M2.456 20.024C1.864 20.024 1.464 19.872 1.256 19.568C1.048 19.264 0.944 18.928 0.944 18.56V2.384C0.944 2.016 1.048 1.688 1.256 1.4C1.464 1.096 1.864 0.943999 2.456 0.943999H10.808C11.4 0.943999 11.712 1.344 11.744 2.144C11.776 2.96 11.464 3.368 10.808 3.368H3.776V17.6H11.24C11.832 17.6 12.136 17.992 12.152 18.776C12.184 19.608 11.88 20.024 11.24 20.024H2.456ZM9.92 10.088C9.92 10.648 9.72 11.12 9.32 11.504C8.936 11.888 8.464 12.08 7.904 12.08C7.36 12.08 6.896 11.888 6.512 11.504C6.128 11.12 5.936 10.648 5.936 10.088C5.936 9.528 6.128 9.056 6.512 8.672C6.896 8.288 7.36 8.096 7.904 8.096C8.464 8.096 8.936 8.288 9.32 8.672C9.72 9.056 9.92 9.528 9.92 10.088ZM19.4281 20.144C19.3961 20.144 19.3561 20.136 19.3081 20.12C19.2601 20.12 19.2121 20.12 19.1641 20.12C19.0841 20.12 18.9721 20.12 18.8281 20.12C18.6841 20.12 18.5481 20.112 18.4201 20.096C18.1481 20.08 17.9161 20.008 17.7241 19.88C17.5321 19.736 17.3961 19.568 17.3161 19.376L13.2841 6.992C13.2041 6.656 13.2441 6.36 13.4041 6.104C13.5801 5.832 13.8521 5.632 14.2201 5.504C14.3321 5.472 14.4441 5.448 14.5561 5.432C14.6681 5.416 14.7641 5.408 14.8441 5.408C15.3401 5.408 15.6841 5.68 15.8761 6.224L17.6281 11.672L19.4761 17.384L23.0761 6.224C23.2521 5.664 23.5721 5.384 24.0361 5.384C24.2121 5.384 24.4361 5.424 24.7081 5.504C25.1241 5.616 25.4121 5.808 25.5721 6.08C25.7321 6.336 25.7561 6.64 25.6441 6.992L21.6361 19.376C21.4921 19.824 21.1161 20.064 20.5081 20.096C20.4761 20.096 20.4361 20.096 20.3881 20.096C20.3561 20.112 20.3241 20.12 20.2921 20.12C20.1641 20.136 20.0521 20.144 19.9561 20.144C19.8601 20.144 19.7721 20.144 19.6921 20.144H19.4281ZM30.4143 16.16C30.4143 16.544 30.5343 16.904 30.7743 17.24C31.0303 17.576 31.4543 17.744 32.0463 17.744H35.0463C35.6383 17.744 36.0543 17.6 36.2943 17.312C36.5503 17.008 36.6783 16.664 36.6783 16.28V16.016C36.6783 15.264 37.1183 14.888 37.9983 14.888C38.8783 14.888 39.3183 15.264 39.3183 16.016V16.304C39.3183 16.976 39.2063 17.528 38.9823 17.96C38.7743 18.392 38.4543 18.768 38.0223 19.088C37.1743 19.696 36.3263 20 35.4783 20H31.4463C30.5983 20 29.7743 19.696 28.9743 19.088C28.5903 18.768 28.2943 18.368 28.0863 17.888C27.8783 17.392 27.7743 16.824 27.7743 16.184V9.344C27.7743 8.048 28.1743 7.088 28.9743 6.464C29.3743 6.176 29.7823 5.952 30.1983 5.792C30.6303 5.616 31.0463 5.528 31.4463 5.528H35.4783C35.8623 5.528 36.2863 5.608 36.7503 5.768C37.2143 5.912 37.6463 6.112 38.0463 6.368C38.4303 6.64 38.7343 7.016 38.9583 7.496C39.1983 7.976 39.3183 8.544 39.3183 9.2V12.44C39.3183 12.808 39.2063 13.136 38.9823 13.424C38.7743 13.712 38.3823 13.856 37.8063 13.856H32.6223C32.0463 13.856 31.7423 13.48 31.7103 12.728C31.7103 11.976 32.0143 11.6 32.6223 11.6H36.7023L36.6783 9.368C36.6783 8.968 36.5503 8.608 36.2943 8.288C36.0543 7.952 35.6383 7.784 35.0463 7.784H32.0463C31.4543 7.784 31.0303 7.952 30.7743 8.288C30.5343 8.608 30.4143 8.968 30.4143 9.368V16.16ZM45.0159 18.992C45.0159 19.76 44.5759 20.144 43.6959 20.144C42.8159 20.144 42.3759 19.76 42.3759 18.992V9.344C42.3759 8.688 42.4799 8.12 42.6879 7.64C42.8959 7.16 43.2239 6.768 43.6719 6.464C44.5199 5.856 45.3679 5.552 46.2159 5.552H50.0799C50.8959 5.552 51.7439 5.856 52.6239 6.464C53.4879 7.072 53.9199 8.032 53.9199 9.344V18.992C53.9199 19.76 53.4799 20.144 52.5999 20.144C51.7199 20.144 51.2799 19.76 51.2799 18.992V9.56C51.2799 9.144 51.1519 8.744 50.8959 8.36L50.9199 8.384C50.7119 8 50.2879 7.808 49.6479 7.808H46.6479C45.9919 7.808 45.5599 8 45.3519 8.384C45.1279 8.72 45.0159 9.112 45.0159 9.56V18.992ZM60.1683 7.808V16.544C60.1683 16.96 60.2563 17.28 60.4323 17.504C60.6083 17.728 60.9843 17.84 61.5603 17.84H62.1843C62.8083 17.84 63.1043 18.208 63.0723 18.944C63.0723 19.696 62.7763 20.072 62.1843 20.072H61.3923C60.8803 20.072 60.4003 20.008 59.9523 19.88C59.5043 19.736 59.0723 19.536 58.6563 19.28V19.304C57.8723 18.792 57.4803 17.88 57.4803 16.568V7.808H56.5443C55.9683 7.808 55.6643 7.432 55.6323 6.68C55.6323 5.928 55.9363 5.552 56.5443 5.552H57.4803V2.984C57.4803 2.216 57.9363 1.832 58.8483 1.832C59.7283 1.832 60.1683 2.216 60.1683 2.984V5.552H62.1603C62.7843 5.552 63.0803 5.928 63.0483 6.68C63.0483 7.432 62.7523 7.808 62.1603 7.808H60.1683ZM66.8851 20.024C66.2931 20.024 65.8931 19.872 65.6851 19.568C65.4771 19.264 65.3731 18.928 65.3731 18.56V1.976C65.3731 1.208 65.8371 0.823999 66.7651 0.823999C67.7251 0.823999 68.2051 1.208 68.2051 1.976V17.6H76.2211C76.7971 17.6 77.0851 17.992 77.0851 18.776C77.1171 19.608 76.8291 20.024 76.2211 20.024H66.8851ZM79.847 23.36C79.287 23.36 78.991 22.984 78.959 22.232C78.959 21.48 79.255 21.104 79.847 21.104H80.903C81.463 21.104 81.831 20.936 82.007 20.6L82.343 19.712L82.463 19.328L77.783 7.064V7.088C77.655 6.704 77.679 6.376 77.855 6.104C78.047 5.832 78.335 5.632 78.719 5.504C79.007 5.424 79.239 5.384 79.415 5.384C79.879 5.384 80.167 5.656 80.279 6.2L82.175 10.928L83.783 14.864L86.351 6.248C86.495 5.672 86.831 5.384 87.359 5.384C87.487 5.384 87.695 5.424 87.983 5.504C88.367 5.616 88.639 5.8 88.799 6.056C88.975 6.312 89.015 6.616 88.919 6.968C88.199 9.416 87.463 11.88 86.711 14.36C85.975 16.84 85.247 19.296 84.527 21.728C84.447 21.904 84.319 22.08 84.143 22.256C83.983 22.448 83.767 22.624 83.495 22.784C83.223 22.96 82.887 23.096 82.487 23.192C82.087 23.304 81.623 23.36 81.095 23.36H79.847Z" fill="black"/>
</svg>