<svg width="384" height="311" viewBox="0 0 384 311" fill="none" xmlns="http://www.w3.org/2000/svg">
<circle cx="192.5" cy="155.5" r="155.5" fill="#1D2228"/>
<g clip-path="url(#clip0_405_3560)">
<path d="M346.548 15.7794C355.74 15.7898 364.552 19.4415 371.052 25.9335C377.551 32.4254 381.207 41.2275 381.217 50.4085V183.118C381.207 192.299 377.551 201.101 371.052 207.593C364.552 214.085 355.74 217.737 346.548 217.747H37.452C28.2603 217.737 19.448 214.085 12.9485 207.593C6.44897 201.101 2.793 192.299 2.78265 183.118V50.4085C2.793 41.2275 6.44897 32.4254 12.9485 25.9335C19.448 19.4415 28.2603 15.7898 37.452 15.7794H346.548Z" fill="white"/>
<path d="M37.452 220.526H346.548C356.477 220.515 365.997 216.57 373.018 209.557C380.039 202.544 383.989 193.036 384 183.118V50.4085C383.989 40.4906 380.039 30.9821 373.018 23.9691C365.997 16.956 356.477 13.0112 346.548 13.0001H37.452C27.5226 13.0112 18.003 16.956 10.9818 23.969C3.9606 30.9821 0.0112 40.4906 3.05176e-05 50.4085V183.118C0.0112 193.036 3.9606 202.544 10.9818 209.557C18.003 216.57 27.5226 220.515 37.452 220.526ZM346.548 18.5588C355.002 18.5683 363.107 21.927 369.085 27.8979C375.063 33.8688 378.425 41.9643 378.435 50.4085V183.118C378.425 191.562 375.063 199.658 369.085 205.629C363.107 211.6 355.002 214.958 346.548 214.968H37.452C28.998 214.958 20.8931 211.6 14.9152 205.629C8.93735 199.658 5.5748 191.562 5.56525 183.118V50.4085C5.5748 41.9643 8.93735 33.8688 14.9152 27.8979C20.8931 21.927 28.998 18.5683 37.452 18.5588H346.548Z" fill="#E6E6E6"/>
<path d="M191.17 43.2556H338.166C341.303 43.2609 344.311 44.5082 346.529 46.724C348.747 48.9398 349.996 51.9435 350.001 55.0772V121.3C350.003 122.003 349.938 122.704 349.807 123.394C349.76 123.709 349.686 124.015 349.612 124.321C348.939 126.841 347.452 129.069 345.383 130.66C343.314 132.251 340.777 133.116 338.166 133.122H191.17C190.929 133.122 190.688 133.113 190.456 133.094H190.289V133.085C190.242 133.086 190.196 133.083 190.15 133.076C190.103 133.076 190.048 133.066 190.001 133.066C189.985 133.068 189.969 133.065 189.955 133.057C189.853 133.048 189.751 133.039 189.658 133.029C189.491 133.001 189.324 132.983 189.167 132.955C189.146 132.948 189.124 132.944 189.102 132.946C189.073 132.932 189.041 132.925 189.009 132.927C189.005 132.924 189.001 132.921 188.996 132.92C188.991 132.918 188.986 132.917 188.981 132.918C188.879 132.9 188.777 132.881 188.675 132.853C188.619 132.845 188.563 132.833 188.508 132.816C188.304 132.77 188.1 132.724 187.905 132.659C187.812 132.631 187.729 132.612 187.636 132.585C187.516 132.548 187.386 132.501 187.265 132.455C187.202 132.437 187.14 132.416 187.08 132.39C187.073 132.39 187.065 132.388 187.059 132.385C187.053 132.382 187.047 132.377 187.043 132.372C186.774 132.277 186.511 132.169 186.254 132.047C186.032 131.945 185.818 131.834 185.605 131.723C185.521 131.686 185.447 131.64 185.364 131.593C185.343 131.584 185.324 131.572 185.308 131.556C185.095 131.427 184.881 131.297 184.677 131.176C184.668 131.167 184.668 131.158 184.659 131.158C184.658 131.158 184.656 131.158 184.655 131.157C184.654 131.157 184.653 131.156 184.652 131.155C184.651 131.154 184.651 131.153 184.65 131.152C184.65 131.151 184.65 131.15 184.65 131.149C184.431 131.012 184.221 130.863 184.019 130.704H184.01C183.954 130.658 183.908 130.621 183.861 130.583C183.796 130.537 183.731 130.482 183.676 130.435C183.564 130.343 183.453 130.25 183.351 130.157C183.288 130.11 183.229 130.057 183.175 130C183.017 129.861 182.869 129.713 182.72 129.564C182.641 129.489 182.567 129.408 182.498 129.323C182.382 129.213 182.274 129.095 182.173 128.971C182.08 128.851 181.978 128.731 181.885 128.61C181.775 128.484 181.673 128.351 181.579 128.212C181.412 127.989 181.264 127.767 181.116 127.526C180.995 127.332 180.874 127.128 180.763 126.924C180.708 126.822 180.652 126.711 180.596 126.6C180.587 126.6 180.587 126.59 180.587 126.581C180.485 126.387 180.392 126.192 180.309 125.988C180.272 125.905 180.234 125.831 180.207 125.747C180.132 125.59 180.077 125.423 180.012 125.256C179.91 124.951 179.808 124.636 179.724 124.321C179.65 124.015 179.576 123.709 179.53 123.394C179.399 122.704 179.333 122.003 179.335 121.3V55.0772C179.34 51.9435 180.589 48.9398 182.807 46.724C185.026 44.5082 188.033 43.2609 191.17 43.2556Z" fill="#4488E0"/>
<path opacity="0.3" d="M179.335 62.2479H350.001V63.1743H179.335V62.2479Z" fill="white"/>
<path opacity="0.3" d="M179.335 72.439H350.001V73.3654H179.335V72.439Z" fill="white"/>
<path opacity="0.3" d="M179.335 82.63H350.001V83.5565H179.335V82.63Z" fill="white"/>
<path opacity="0.3" d="M179.335 92.821H350.001V93.7474H179.335V92.821Z" fill="white"/>
<path opacity="0.3" d="M179.335 103.012H350.001V103.938H179.335V103.012Z" fill="white"/>
<path opacity="0.3" d="M179.335 113.203H350.001V114.13H179.335V113.203Z" fill="white"/>
<path opacity="0.3" d="M179.53 123.394C179.576 123.709 179.65 124.015 179.724 124.321H349.871C349.927 124.014 349.965 123.705 349.983 123.394H179.53Z" fill="white"/>
<g opacity="0.1">
<path opacity="0.1" d="M179.335 106.959V121.3C179.333 122.003 179.399 122.704 179.53 123.394C179.576 123.709 179.65 124.015 179.724 124.321C179.808 124.635 179.91 124.951 180.012 125.256C180.077 125.423 180.132 125.59 180.207 125.747C180.234 125.831 180.272 125.905 180.309 125.988C180.392 126.192 180.485 126.387 180.587 126.581C180.587 126.59 180.587 126.6 180.596 126.6C180.652 126.711 180.708 126.822 180.763 126.924C180.874 127.128 180.995 127.332 181.116 127.526C181.264 127.767 181.412 127.989 181.579 128.212C181.673 128.351 181.775 128.484 181.885 128.61C181.978 128.73 182.08 128.851 182.173 128.971C182.274 129.095 182.382 129.213 182.498 129.323C182.567 129.408 182.641 129.489 182.72 129.564C182.869 129.713 183.017 129.861 183.175 130C183.229 130.057 183.288 130.11 183.351 130.157C183.453 130.25 183.564 130.342 183.676 130.435C183.731 130.481 183.796 130.537 183.861 130.583C183.908 130.62 183.954 130.657 184.01 130.704H184.019C184.221 130.863 184.431 131.012 184.65 131.149C184.65 131.15 184.65 131.151 184.65 131.152C184.651 131.153 184.651 131.154 184.652 131.155C184.653 131.156 184.654 131.157 184.655 131.157C184.656 131.158 184.658 131.158 184.659 131.158C184.668 131.158 184.668 131.167 184.677 131.176C184.807 131.269 184.946 131.352 185.086 131.436C185.16 131.482 185.234 131.519 185.308 131.556C185.324 131.572 185.343 131.584 185.364 131.593C185.447 131.64 185.521 131.686 185.605 131.723C185.818 131.834 186.032 131.945 186.254 132.047C186.511 132.169 186.774 132.277 187.043 132.371C187.047 132.377 187.053 132.382 187.059 132.385C187.065 132.388 187.073 132.39 187.08 132.39C187.14 132.416 187.202 132.437 187.265 132.455C187.386 132.501 187.516 132.547 187.636 132.584C187.729 132.612 187.812 132.631 187.905 132.659C188.1 132.723 188.304 132.77 188.508 132.816C188.563 132.833 188.619 132.845 188.675 132.853C188.777 132.881 188.879 132.899 188.981 132.918C188.986 132.917 188.991 132.918 188.996 132.919C189.001 132.921 189.005 132.924 189.009 132.927C189.041 132.925 189.073 132.932 189.102 132.946C189.124 132.944 189.146 132.947 189.167 132.955C189.324 132.983 189.491 133.001 189.658 133.029C189.751 133.038 189.853 133.048 189.955 133.057C189.969 133.064 189.985 133.068 190.001 133.066C190.103 133.076 190.196 133.085 190.289 133.094H190.308C190.41 133.103 190.512 133.103 190.614 133.113C190.799 133.122 190.985 133.122 191.17 133.122H338.166C340.777 133.116 343.314 132.251 345.383 130.66C347.452 129.069 348.939 126.841 349.612 124.32H349.872C349.928 124.014 349.965 123.705 349.983 123.394C349.992 123.218 350.001 123.033 350.001 122.857V106.699C348.055 106.757 346.124 107.071 344.26 107.635C339.214 109.173 334.308 111.776 329.039 111.776C328.622 111.776 328.186 111.758 327.759 111.721C322.212 111.257 317.899 107.82 314.31 103.938C314.022 103.633 313.735 103.327 313.466 103.012C312.789 102.262 312.139 101.493 311.509 100.733C309.494 98.191 307.235 95.8515 304.765 93.7474C304.367 93.4231 303.968 93.1174 303.56 92.821C301.165 91.037 298.345 89.9096 295.379 89.5506C294.999 89.5135 294.618 89.4857 294.238 89.4765C290.268 89.356 286.539 90.7827 283.145 92.821C282.653 93.1174 282.161 93.4231 281.688 93.7474C280.065 94.8465 278.502 96.031 277.004 97.2957C274.693 99.324 272.278 101.232 269.77 103.012C269.584 103.142 269.399 103.271 269.213 103.383C268.926 103.577 268.629 103.762 268.332 103.938C265.791 105.57 262.934 106.646 259.947 107.098C259.845 107.116 259.734 107.135 259.622 107.144C254.79 107.709 250.291 106.282 246.182 103.938C245.672 103.642 245.153 103.336 244.652 103.012C241.442 100.881 238.434 98.4624 235.664 95.7856C234.941 95.1093 234.208 94.4237 233.447 93.7474C233.104 93.4417 232.761 93.1267 232.408 92.821C226.899 87.9848 220.545 83.5564 213.041 83.5564C212.726 83.5564 212.401 83.5657 212.077 83.5842C206.679 83.8436 201.939 86.4562 197.96 89.7729C196.804 90.7309 195.699 91.7483 194.648 92.821C194.602 92.8673 194.565 92.9043 194.519 92.9507C194.259 93.2101 193.999 93.4787 193.758 93.7474C190.79 96.851 188.054 100.168 184.826 103.012C184.473 103.336 184.112 103.642 183.741 103.938C182.628 104.861 181.45 105.704 180.216 106.458C179.928 106.634 179.632 106.801 179.335 106.959Z" fill="black"/>
</g>
<g opacity="0.1">
<path opacity="0.1" d="M179.335 92.9599V121.3C179.333 122.003 179.399 122.704 179.53 123.394C179.576 123.709 179.65 124.015 179.724 124.321C179.808 124.635 179.91 124.95 180.012 125.256C180.077 125.423 180.132 125.59 180.207 125.747C180.234 125.831 180.272 125.905 180.309 125.988C180.392 126.192 180.485 126.386 180.587 126.581C180.587 126.59 180.587 126.6 180.596 126.6C180.652 126.711 180.708 126.822 180.763 126.924C180.874 127.128 180.995 127.331 181.116 127.526C181.264 127.767 181.412 127.989 181.579 128.212C181.673 128.35 181.775 128.484 181.885 128.61C181.978 128.73 182.08 128.851 182.173 128.971C182.274 129.095 182.382 129.213 182.498 129.323C182.567 129.408 182.641 129.489 182.72 129.564C182.869 129.713 183.017 129.861 183.175 130C183.229 130.057 183.288 130.11 183.351 130.157C183.453 130.25 183.564 130.342 183.676 130.435C183.731 130.481 183.796 130.537 183.861 130.583C183.908 130.62 183.954 130.657 184.01 130.704H184.019C184.221 130.863 184.431 131.012 184.65 131.148C184.65 131.15 184.65 131.151 184.65 131.152C184.651 131.153 184.651 131.154 184.652 131.155C184.653 131.156 184.654 131.157 184.655 131.157C184.656 131.158 184.658 131.158 184.659 131.158C184.668 131.158 184.668 131.167 184.677 131.176C184.807 131.269 184.946 131.352 185.086 131.436C185.16 131.482 185.234 131.519 185.308 131.556C185.324 131.572 185.343 131.584 185.364 131.593C185.447 131.639 185.521 131.686 185.605 131.723C185.818 131.834 186.032 131.945 186.254 132.047C186.511 132.169 186.774 132.277 187.043 132.371C187.047 132.377 187.053 132.382 187.059 132.385C187.065 132.388 187.073 132.39 187.08 132.39C187.14 132.416 187.202 132.437 187.265 132.455C187.386 132.501 187.516 132.547 187.636 132.584C187.729 132.612 187.812 132.631 187.905 132.659C188.1 132.723 188.304 132.77 188.508 132.816C188.563 132.833 188.619 132.845 188.675 132.853C188.777 132.881 188.879 132.899 188.981 132.918C188.986 132.917 188.991 132.918 188.996 132.919C189.001 132.921 189.005 132.924 189.009 132.927C189.041 132.925 189.073 132.932 189.102 132.946C189.124 132.944 189.146 132.947 189.167 132.955C189.324 132.983 189.491 133.001 189.658 133.029C189.751 133.038 189.853 133.048 189.955 133.057C189.969 133.064 189.985 133.068 190.001 133.066C190.048 133.066 190.103 133.075 190.15 133.075C190.196 133.083 190.242 133.086 190.289 133.085C190.329 133.093 190.369 133.096 190.41 133.094H190.456C190.502 133.103 190.558 133.103 190.614 133.112C190.799 133.122 190.985 133.122 191.17 133.122H338.166C340.777 133.116 343.314 132.251 345.383 130.66C347.452 129.069 348.939 126.84 349.612 124.32C349.686 124.015 349.76 123.709 349.807 123.394C349.938 122.704 350.003 122.003 350.001 121.3V104.8C349.677 104.522 349.361 104.235 349.046 103.938C348.721 103.633 348.406 103.327 348.091 103.012C345.328 100.14 342.812 97.0407 340.568 93.7474C340.494 93.6455 340.42 93.5529 340.355 93.451C340.207 93.2379 340.058 93.034 339.901 92.821C337.651 89.5325 335.135 86.4339 332.378 83.5564C332.063 83.2414 331.748 82.9356 331.423 82.6299C327.972 79.3873 324.04 76.9693 319.402 76.3948C313.011 75.5981 307.066 78.5535 301.807 82.6299C301.417 82.9356 301.037 83.2414 300.657 83.5564C298.857 85.0202 297.15 86.6137 295.537 88.198C295.11 88.6241 294.674 89.0503 294.238 89.4765C293.116 90.5975 291.966 91.7185 290.806 92.821C290.472 93.1359 290.148 93.4417 289.814 93.7474C285.176 98.0369 280.158 101.808 274.194 103.012C273.786 103.095 273.368 103.169 272.951 103.225C270.698 103.525 268.41 103.453 266.18 103.012C265.809 102.947 265.447 102.864 265.076 102.771C259.492 101.391 254.317 97.9165 249.633 93.7474C249.299 93.4417 248.956 93.1359 248.622 92.821C246.229 90.6067 243.956 88.235 241.832 85.9003C241.127 85.1221 240.404 84.3346 239.68 83.5564C239.383 83.2507 239.096 82.9449 238.808 82.6299C235.704 79.2509 232.309 76.1508 228.661 73.3654C228.225 73.0411 227.789 72.7354 227.353 72.4389C222.447 69.0944 217.086 66.945 211.196 67.2878C206.335 67.5657 201.892 69.5668 197.895 72.4389C197.487 72.7354 197.079 73.0411 196.67 73.3654C193.628 75.8065 190.852 78.5609 188.388 81.583C188.1 81.9258 187.812 82.2779 187.525 82.6299C187.377 82.806 187.237 82.9913 187.089 83.1673L186.783 83.5564C184.325 86.623 181.96 89.81 179.446 92.821L179.335 92.9599Z" fill="black"/>
</g>
<g opacity="0.1">
<path opacity="0.1" d="M179.335 81.2588V121.3C179.333 122.003 179.399 122.704 179.53 123.394C179.576 123.709 179.65 124.015 179.724 124.321C179.808 124.636 179.91 124.951 180.012 125.256C180.077 125.423 180.132 125.59 180.207 125.747C180.234 125.831 180.272 125.905 180.309 125.988C180.392 126.192 180.485 126.387 180.587 126.581C180.587 126.59 180.587 126.6 180.596 126.6C180.652 126.711 180.708 126.822 180.763 126.924C180.874 127.128 180.995 127.332 181.116 127.526C181.264 127.767 181.412 127.989 181.579 128.212C181.673 128.351 181.775 128.484 181.885 128.61C181.978 128.73 182.08 128.851 182.173 128.971C182.274 129.095 182.382 129.213 182.498 129.323C182.567 129.408 182.641 129.489 182.72 129.564C182.869 129.713 183.017 129.861 183.175 130C183.229 130.057 183.288 130.11 183.351 130.157C183.453 130.25 183.564 130.343 183.676 130.435C183.731 130.481 183.796 130.537 183.861 130.583C183.908 130.62 183.954 130.657 184.01 130.704H184.019C184.221 130.863 184.431 131.012 184.65 131.149C184.65 131.15 184.65 131.151 184.65 131.152C184.651 131.153 184.651 131.154 184.652 131.155C184.653 131.156 184.654 131.157 184.655 131.157C184.656 131.158 184.658 131.158 184.659 131.158C184.668 131.158 184.668 131.167 184.677 131.176C184.807 131.269 184.946 131.352 185.086 131.436C185.16 131.482 185.234 131.519 185.308 131.556C185.324 131.572 185.343 131.584 185.364 131.593C185.447 131.64 185.521 131.686 185.605 131.723C185.818 131.834 186.032 131.945 186.254 132.047C186.511 132.169 186.774 132.277 187.043 132.371C187.047 132.377 187.053 132.382 187.059 132.385C187.065 132.388 187.073 132.39 187.08 132.39C187.14 132.416 187.202 132.437 187.265 132.455C187.386 132.501 187.516 132.547 187.636 132.584C187.729 132.612 187.812 132.631 187.905 132.659C188.1 132.723 188.304 132.77 188.508 132.816C188.563 132.833 188.619 132.845 188.675 132.853C188.777 132.881 188.879 132.899 188.981 132.918C188.986 132.917 188.991 132.918 188.996 132.919C189.001 132.921 189.005 132.924 189.009 132.927C189.041 132.925 189.073 132.932 189.102 132.946C189.124 132.944 189.146 132.947 189.167 132.955C189.324 132.983 189.491 133.001 189.658 133.029C189.751 133.038 189.853 133.048 189.955 133.057C189.969 133.064 189.985 133.068 190.001 133.066C190.048 133.066 190.103 133.076 190.15 133.076C190.196 133.083 190.242 133.086 190.289 133.085C190.294 133.09 190.301 133.093 190.308 133.094H190.456C190.688 133.113 190.929 133.122 191.17 133.122H338.166C340.777 133.116 343.314 132.251 345.383 130.66C347.452 129.069 348.939 126.84 349.612 124.32C349.686 124.015 349.76 123.709 349.807 123.394C349.938 122.704 350.003 122.003 350.001 121.3V97.3792C349.065 96.1655 348.125 94.9549 347.182 93.7475C346.941 93.4324 346.699 93.1267 346.458 92.821C345.188 91.1904 343.908 89.5784 342.59 88.0034C341.329 86.4933 340.003 85.0017 338.621 83.5564C338.324 83.2507 338.027 82.9357 337.721 82.63C334.202 78.9683 330.161 75.8464 325.728 73.3654C325.125 73.0319 324.513 72.7262 323.891 72.439C320.6 70.8696 317.04 69.942 313.401 69.7059C308.627 69.4678 303.868 70.4064 299.543 72.439C298.894 72.7169 298.254 73.0319 297.623 73.3654C293.088 75.7001 288.83 78.9705 284.842 82.63C284.499 82.9265 284.174 83.2414 283.84 83.5564C280.677 86.5211 277.681 89.6989 274.825 92.821C274.611 93.0526 274.398 93.2935 274.185 93.5251C274.12 93.5992 274.045 93.6733 273.981 93.7475C271.198 96.8048 268.23 99.8992 265.076 102.771C264.993 102.855 264.9 102.929 264.807 103.012C264.464 103.327 264.121 103.633 263.768 103.938C262.526 105.041 261.246 106.097 259.947 107.098C256.869 109.519 253.516 111.568 249.957 113.203C249.206 113.546 248.446 113.852 247.676 114.13C243.435 115.747 238.858 116.288 234.356 115.705C232.288 115.419 230.262 114.89 228.318 114.13C227.576 113.852 226.852 113.537 226.138 113.203C221.436 110.98 217.188 107.617 213.162 103.938C212.828 103.633 212.494 103.327 212.16 103.012C209.869 100.863 207.643 98.6299 205.445 96.4713C204.517 95.5633 203.571 94.6461 202.597 93.7475C202.263 93.4417 201.92 93.136 201.577 92.821C200.408 91.7741 199.203 90.7458 197.96 89.7729C194.922 87.2895 191.581 85.2007 188.016 83.5564C187.71 83.4175 187.395 83.2877 187.089 83.1673C186.616 82.9727 186.143 82.7968 185.67 82.63C183.627 81.8989 181.497 81.4379 179.335 81.2588Z" fill="black"/>
</g>
<path d="M313.364 75.2183C311.827 75.2183 310.581 73.9739 310.581 72.4389C310.581 70.9039 311.827 69.6595 313.364 69.6595C314.9 69.6595 316.146 70.9039 316.146 72.4389C316.146 73.9739 314.9 75.2183 313.364 75.2183Z" fill="white"/>
<path d="M270.697 105.791C269.16 105.791 267.915 104.547 267.915 103.012C267.915 101.477 269.16 100.233 270.697 100.233C272.234 100.233 273.48 101.477 273.48 103.012C273.48 104.547 272.234 105.791 270.697 105.791Z" fill="white"/>
<path d="M213.19 85.4093C211.653 85.4093 210.407 84.165 210.407 82.63C210.407 81.0949 211.653 79.8506 213.19 79.8506C214.727 79.8506 215.972 81.0949 215.972 82.63C215.972 84.165 214.727 85.4093 213.19 85.4093Z" fill="white"/>
<path d="M86.6181 106.344H152.231C152.542 106.343 152.851 106.404 153.138 106.523C153.426 106.642 153.687 106.816 153.907 107.035C154.128 107.255 154.302 107.516 154.422 107.803C154.541 108.09 154.602 108.398 154.602 108.709C154.602 109.02 154.541 109.327 154.422 109.614C154.302 109.902 154.128 110.162 153.907 110.382C153.687 110.602 153.426 110.776 153.138 110.894C152.851 111.013 152.542 111.074 152.231 111.073H86.6181C85.9902 111.073 85.388 110.824 84.944 110.381C84.5 109.937 84.2506 109.336 84.2506 108.709C84.2506 108.082 84.5 107.48 84.944 107.037C85.388 106.593 85.9902 106.344 86.6181 106.344Z" fill="#E6E6E6"/>
<path d="M86.6182 142.153H152.231C152.859 142.153 153.461 142.402 153.905 142.845C154.349 143.289 154.599 143.89 154.599 144.517C154.599 145.145 154.349 145.746 153.905 146.19C153.461 146.633 152.859 146.882 152.231 146.882H86.6182C85.9903 146.882 85.3881 146.633 84.9441 146.19C84.5001 145.746 84.2507 145.145 84.2507 144.517C84.2507 143.89 84.5001 143.289 84.9441 142.845C85.3881 142.402 85.9903 142.153 86.6182 142.153Z" fill="#E6E6E6"/>
<path d="M86.6182 177.961H152.231C152.859 177.961 153.461 178.211 153.905 178.654C154.349 179.097 154.599 179.699 154.599 180.326C154.599 180.953 154.349 181.555 153.905 181.998C153.461 182.442 152.859 182.691 152.231 182.691H86.6182C85.9903 182.691 85.3881 182.442 84.9441 181.998C84.5001 181.555 84.2507 180.953 84.2507 180.326C84.2507 179.699 84.5001 179.097 84.9441 178.654C85.3881 178.211 85.9903 177.961 86.6182 177.961Z" fill="#E6E6E6"/>
<path d="M46.8614 114.791C43.5961 114.791 40.9491 112.147 40.9491 108.886C40.9491 105.624 43.5961 102.98 46.8614 102.98C50.1267 102.98 52.7737 105.624 52.7737 108.886C52.7737 112.147 50.1267 114.791 46.8614 114.791Z" fill="#F2F2F2"/>
<path d="M47.6679 111.959C47.77 111.959 47.8707 111.935 47.962 111.89C48.0533 111.844 48.1327 111.778 48.194 111.696L49.8069 109.548C49.8589 109.479 49.8967 109.401 49.9182 109.317C49.9398 109.233 49.9446 109.146 49.9324 109.061C49.9202 108.975 49.8913 108.893 49.8473 108.819C49.8033 108.745 49.745 108.68 49.6759 108.628C49.6067 108.576 49.5281 108.538 49.4443 108.517C49.3606 108.496 49.2735 108.491 49.1879 108.503C49.1023 108.515 49.02 108.544 48.9457 108.588C48.8714 108.632 48.8065 108.691 48.7547 108.76L47.6994 110.165L44.9891 106.104C44.8923 105.96 44.7419 105.859 44.5709 105.825C44.3998 105.791 44.2222 105.826 44.0771 105.922C43.9319 106.019 43.8312 106.169 43.797 106.34C43.7627 106.511 43.7979 106.688 43.8946 106.833L47.1206 111.667C47.179 111.754 47.2575 111.826 47.3495 111.877C47.4415 111.928 47.5445 111.956 47.6496 111.959L47.6679 111.959Z" fill="white"/>
<path d="M46.8614 150.6C43.5961 150.6 40.9491 147.956 40.9491 144.694C40.9491 141.433 43.5961 138.789 46.8614 138.789C50.1267 138.789 52.7737 141.433 52.7737 144.694C52.7737 147.956 50.1267 150.6 46.8614 150.6Z" fill="#F2F2F2"/>
<path d="M47.6679 147.768C47.77 147.768 47.8707 147.744 47.962 147.698C48.0533 147.653 48.1327 147.587 48.194 147.505L49.8069 145.357C49.8589 145.288 49.8967 145.209 49.9182 145.126C49.9398 145.042 49.9446 144.955 49.9324 144.869C49.9202 144.784 49.8913 144.702 49.8473 144.627C49.8033 144.553 49.745 144.488 49.6759 144.436C49.6067 144.385 49.528 144.347 49.4443 144.326C49.3606 144.304 49.2734 144.299 49.1879 144.312C49.1023 144.324 49.02 144.353 48.9457 144.397C48.8714 144.441 48.8065 144.499 48.7547 144.569L47.6994 145.974L44.9891 141.913C44.9412 141.841 44.8796 141.78 44.8078 141.732C44.7361 141.684 44.6555 141.65 44.5708 141.633C44.4861 141.616 44.399 141.616 44.3142 141.633C44.2295 141.65 44.1489 141.683 44.077 141.731C44.0052 141.779 43.9435 141.84 43.8954 141.912C43.8473 141.984 43.8139 142.064 43.797 142.149C43.78 142.233 43.7799 142.32 43.7967 142.405C43.8134 142.49 43.8467 142.57 43.8946 142.642L47.1206 147.475C47.1789 147.563 47.2574 147.635 47.3495 147.686C47.4415 147.736 47.5444 147.765 47.6496 147.768L47.6679 147.768Z" fill="white"/>
<path d="M46.8614 186.408C43.5961 186.408 40.9491 183.764 40.9491 180.503C40.9491 177.241 43.5961 174.598 46.8614 174.598C50.1267 174.598 52.7737 177.241 52.7737 180.503C52.7737 183.764 50.1267 186.408 46.8614 186.408Z" fill="#F2F2F2"/>
<path d="M86.6182 70.5353H152.231C152.859 70.5353 153.461 70.7844 153.905 71.2279C154.349 71.6714 154.599 72.2728 154.599 72.9C154.599 73.5272 154.349 74.1286 153.905 74.5721C153.461 75.0156 152.859 75.2647 152.231 75.2647H86.6182C85.9903 75.2647 85.3881 75.0156 84.9441 74.5721C84.5001 74.1286 84.2507 73.5272 84.2507 72.9C84.2507 72.2728 84.5001 71.6714 84.9441 71.2279C85.3881 70.7844 85.9903 70.5353 86.6182 70.5353Z" fill="#E6E6E6"/>
<path d="M46.8614 78.9824C43.5961 78.9824 40.9491 76.3384 40.9491 73.0769C40.9491 69.8154 43.5961 67.1714 46.8614 67.1714C50.1267 67.1714 52.7737 69.8154 52.7737 73.0769C52.7737 76.3384 50.1267 78.9824 46.8614 78.9824Z" fill="#4488E0"/>
<path d="M47.6679 76.1504C47.77 76.1504 47.8707 76.1267 47.962 76.0811C48.0533 76.0354 48.1327 75.9692 48.194 75.8876L49.8069 73.7394C49.8589 73.6704 49.8967 73.5919 49.9182 73.5083C49.9398 73.4247 49.9446 73.3376 49.9324 73.2522C49.9202 73.1667 49.8913 73.0844 49.8473 73.0102C49.8033 72.9359 49.745 72.8709 49.6759 72.8192C49.6067 72.7674 49.5281 72.7297 49.4443 72.7083C49.3606 72.6869 49.2735 72.6822 49.1879 72.6945C49.1023 72.7067 49.02 72.7357 48.9457 72.7798C48.8714 72.8238 48.8065 72.8821 48.7547 72.9512L47.6994 74.3565L44.9891 70.2958C44.9412 70.224 44.8796 70.1624 44.8078 70.1144C44.7361 70.0664 44.6555 70.033 44.5708 70.0161C44.4862 69.9991 44.399 69.999 44.3142 70.0158C44.2295 70.0325 44.1489 70.0658 44.077 70.1136C44.0052 70.1615 43.9435 70.223 43.8954 70.2947C43.8474 70.3664 43.8139 70.4468 43.7969 70.5314C43.78 70.616 43.7799 70.7031 43.7967 70.7877C43.8135 70.8723 43.8467 70.9528 43.8946 71.0246L47.1206 75.8579C47.179 75.9453 47.2575 76.0175 47.3495 76.0683C47.4415 76.1192 47.5445 76.1473 47.6496 76.1502L47.6679 76.1504Z" fill="white"/>
<path d="M66.4775 78.9824C63.2122 78.9824 60.5652 76.3384 60.5652 73.0769C60.5652 69.8154 63.2122 67.1714 66.4775 67.1714C69.7428 67.1714 72.3899 69.8154 72.3899 73.0769C72.3899 76.3384 69.7428 78.9824 66.4775 78.9824Z" fill="#F2F2F2"/>
<path d="M66.4775 114.791C63.2122 114.791 60.5652 112.147 60.5652 108.886C60.5652 105.624 63.2122 102.98 66.4775 102.98C69.7428 102.98 72.3899 105.624 72.3899 108.886C72.3899 112.147 69.7428 114.791 66.4775 114.791Z" fill="#F2F2F2"/>
<path d="M66.4775 150.6C63.2122 150.6 60.5652 147.956 60.5652 144.694C60.5652 141.433 63.2122 138.789 66.4775 138.789C69.7428 138.789 72.3899 141.433 72.3899 144.694C72.3899 147.956 69.7428 150.6 66.4775 150.6Z" fill="#F2F2F2"/>
<path d="M66.4775 186.408C63.2122 186.408 60.5652 183.764 60.5652 180.503C60.5652 177.241 63.2122 174.598 66.4775 174.598C69.7428 174.598 72.3899 177.241 72.3899 180.503C72.3899 183.764 69.7428 186.408 66.4775 186.408Z" fill="#F2F2F2"/>
<path d="M47.6679 183.577C47.77 183.577 47.8707 183.553 47.962 183.507C48.0533 183.462 48.1328 183.395 48.194 183.314L49.8069 181.166C49.8588 181.097 49.8965 181.018 49.9179 180.934C49.9393 180.851 49.9441 180.764 49.9319 180.679C49.9197 180.593 49.8907 180.511 49.8467 180.437C49.8027 180.363 49.7445 180.298 49.6754 180.246C49.6063 180.194 49.5277 180.157 49.444 180.135C49.3604 180.114 49.2733 180.109 49.1878 180.121C49.1023 180.133 49.0201 180.162 48.9457 180.206C48.8714 180.25 48.8065 180.308 48.7547 180.377L47.6994 181.783L44.9891 177.722C44.8924 177.577 44.7419 177.476 44.5709 177.442C44.3999 177.408 44.2222 177.443 44.0771 177.54C43.932 177.636 43.8312 177.787 43.797 177.958C43.7628 178.128 43.798 178.306 43.8947 178.451L47.1206 183.284C47.179 183.371 47.2575 183.444 47.3495 183.494C47.4416 183.545 47.5445 183.573 47.6496 183.576L47.6679 183.577Z" fill="white"/>
<path d="M88.2951 171.799C87.8481 171.261 87.5245 170.632 87.3472 169.956C87.1699 169.28 87.1431 168.573 87.2688 167.886C87.3945 167.198 87.6696 166.547 88.0747 165.977C88.4798 165.407 89.005 164.933 89.6134 164.588L86.5264 147.881L94.6654 151.323L96.3491 166.66C96.8619 167.719 96.9677 168.93 96.6467 170.062C96.3257 171.194 95.6 172.169 94.6073 172.803C93.6145 173.436 92.4236 173.684 91.2602 173.499C90.0968 173.314 89.0418 172.709 88.2951 171.799Z" fill="#FFB6B6"/>
<path d="M83.3278 122.353L85.9145 113.667L104.155 85.2408C105.169 84.0572 106.382 83.0586 107.738 82.2895C110.434 80.7503 113.577 80.1806 116.642 80.6753C119.708 81.17 122.511 82.6992 124.584 85.008C126.658 87.3168 127.877 90.2657 128.037 93.3632C128.198 96.4607 127.291 99.5196 125.467 102.03C125.091 102.555 124.676 103.05 124.225 103.511L100.602 127.847L99.2572 129.236L97.1305 134.607L96.2921 159.102L95.5407 159.28L88.9204 160.838L87.9951 161.057L86.4462 153.056L85.4749 149.232C84.6487 145.97 84.2314 142.618 84.2326 139.254C84.2326 138.217 84.2684 137.176 84.3502 136.139L83.3278 122.353Z" fill="#3F3D56"/>
<path d="M108.402 291.259H114.736L117.75 266.857L108.401 266.857L108.402 291.259Z" fill="#FFB6B6"/>
<path d="M108.571 289.192L115.33 286.45L115.529 286.368L119.261 289.192C121.309 289.192 123.278 289.981 124.757 291.396C126.236 292.811 127.111 294.741 127.2 296.785C127.21 296.897 127.21 297.015 127.21 297.132V297.393H106.787V289.192H108.571Z" fill="#1D2228"/>
<path d="M120.465 278.639L125.924 281.848L140.911 262.343L132.854 257.608L120.465 278.639Z" fill="#FFB6B6"/>
<path d="M116.695 281.854L117.436 280.593L120.12 276.038L121.515 276.861L121.658 276.942L128.877 278.004L129.092 278.035L130.871 282.36C131.771 282.889 132.558 283.589 133.187 284.422C133.815 285.254 134.274 286.202 134.536 287.212C134.798 288.221 134.859 289.272 134.714 290.305C134.569 291.338 134.222 292.332 133.692 293.231L133.559 293.451L115.958 283.105L116.695 281.854Z" fill="#1D2228"/>
<path d="M100.381 142.077C97.4111 151.023 97.725 160.734 101.094 171.156L101.974 206.983L104.799 229.582C103.095 234.011 102.221 238.714 102.221 243.458C102.233 255.892 103.07 273.558 107.314 281.856H117.357L119.624 244.901L122.329 226.321L122.663 206.41L122.954 189.045L133.874 204.994L144.485 220.493L133.938 238.263L124.736 266.858L134.449 275.027L145.468 254.162L150.808 247.965L165.385 216.444L164.075 212.055C161.377 203.017 157.459 194.388 152.429 186.407L137.929 152.793L100.381 142.077Z" fill="#2F2E41"/>
<path d="M99.0935 139.091L100.75 135.782L100.602 127.847L100.106 101.019C100.046 97.544 100.691 94.0931 102.003 90.8741C103.315 87.6551 105.266 84.7349 107.738 82.2894C109.205 80.8293 110.847 79.5551 112.625 78.4956L116.183 76.3714L117.983 71.8065L134.577 72.2099L134.613 76.6369L134.628 78.1943L140.573 87.6611L140.568 87.702L140.445 104.93L140.2 139.223L138.559 144.539L141.038 150.728L139.72 154.67L138.666 154.501L103.199 148.838C101.586 148.322 100.218 147.236 99.3491 145.785C99.1743 145.501 99.0222 145.204 98.8941 144.896C98.5073 143.971 98.3249 142.974 98.3593 141.972C98.3937 140.97 98.6442 139.987 99.0935 139.091Z" fill="#1D2228"/>
<path d="M127.801 66.1282C119.474 66.1282 112.723 59.3851 112.723 51.0671C112.723 42.7491 119.474 36.006 127.801 36.006C136.129 36.006 142.88 42.7491 142.88 51.0671C142.88 59.3851 136.129 66.1282 127.801 66.1282Z" fill="#FFB6B6"/>
<path d="M118.421 63.547C116.829 62.4277 115.216 60.2971 114.142 58.7021C112.718 56.6052 111.751 54.233 111.304 51.7391C110.857 49.2452 110.94 46.6854 111.546 44.2253C111.743 43.2411 112.204 42.329 112.881 41.5874C113.227 41.2254 113.679 40.982 114.172 40.8921C114.664 40.8022 115.173 40.8704 115.625 41.0869C115.397 40.451 115.302 39.7752 115.346 39.1012C115.39 38.4272 115.572 37.7694 115.88 37.1683C116.506 35.9683 117.403 34.9304 118.501 34.137C120.6 32.568 123.086 31.5959 125.694 31.324C128.302 31.0521 130.934 31.4904 133.313 32.5926C134.249 33.0415 132.749 29.6536 133.73 29.9919C134.704 30.3842 135.793 30.3801 136.764 29.9805C137.697 29.5272 140.732 32.3393 140.39 31.3604C141.089 31.6892 141.694 32.1893 142.147 32.8143C142.601 33.4393 142.889 34.1688 142.984 34.9348C143.079 35.7008 142.979 36.4784 142.692 37.1952C142.406 37.912 141.942 38.5448 141.345 39.0344C140.557 39.6797 139.581 40.0441 138.721 40.5893C137.214 41.6177 136.135 43.1617 135.69 44.9298C135.244 46.6979 135.462 48.5677 136.303 50.1862C135.414 49.5986 134.437 49.158 133.408 48.8817C132.891 48.7483 132.35 48.7399 131.83 48.8573C131.31 48.9747 130.825 49.2145 130.416 49.5567C130.074 49.9378 129.812 50.385 129.649 50.8706C129.485 51.3563 129.423 51.8702 129.465 52.3808C129.485 53.4033 129.715 54.4134 129.728 55.436C129.766 58.4364 131.296 64.1609 128.945 65.7229C127.091 66.9556 120.596 65.0751 118.421 63.547Z" fill="#1D2228"/>
<path d="M211.569 87.7006C211.212 88.3018 210.727 88.8176 210.149 89.2116C209.572 89.6056 208.914 89.8682 208.224 89.981C207.533 90.0938 206.826 90.054 206.153 89.8643C205.479 89.6747 204.856 89.3399 204.326 88.8835L189.61 97.4016L190.12 88.5883L204.016 81.8505C204.843 81.0122 205.949 80.5058 207.124 80.4273C208.3 80.3489 209.463 80.7039 210.394 81.425C211.325 82.1461 211.959 83.1832 212.175 84.3398C212.392 85.4965 212.176 86.6923 211.569 87.7006Z" fill="#FFB6B6"/>
<path d="M116.536 85.0621C117.107 83.2798 118.041 81.6348 119.279 80.2303C120.517 78.8259 122.032 77.6924 123.73 76.9011C125.428 76.1098 127.271 75.6779 129.144 75.6324C131.016 75.587 132.878 75.9289 134.613 76.6369C134.776 76.7033 134.94 76.7748 135.103 76.8462L167.749 91.6899L180.458 90.1836L196.909 84.4443L197.328 85.0927L201.024 90.7963L201.541 91.5929L183.894 102.015L182.023 102.403C180.393 102.739 178.847 103.394 177.471 104.329C176.095 105.264 174.918 106.461 174.007 107.851L167.167 110.098L140.446 104.93L125.467 102.03L124.618 101.867C122.052 100.88 119.844 99.14 118.287 96.876C116.729 94.6119 115.894 91.9299 115.892 89.1828C115.891 87.7841 116.108 86.3939 116.536 85.0621Z" fill="#3F3D56"/>
<path d="M232.041 155.94H340.085C340.712 155.941 341.314 156.191 341.757 156.634C342.2 157.077 342.449 157.678 342.449 158.305C342.449 158.932 342.2 159.532 341.757 159.976C341.314 160.419 340.712 160.669 340.085 160.67H232.041C231.73 160.67 231.422 160.609 231.134 160.491C230.847 160.372 230.585 160.198 230.365 159.978C230.145 159.759 229.97 159.498 229.851 159.211C229.732 158.924 229.67 158.616 229.67 158.305C229.67 157.994 229.732 157.686 229.851 157.399C229.97 157.112 230.145 156.851 230.365 156.632C230.585 156.412 230.847 156.238 231.134 156.119C231.422 156.001 231.73 155.94 232.041 155.94H232.041Z" fill="#E6E6E6"/>
<path d="M192.285 164.387C189.019 164.387 186.372 161.743 186.372 158.482C186.372 155.22 189.019 152.576 192.285 152.576C195.55 152.576 198.197 155.22 198.197 158.482C198.197 161.743 195.55 164.387 192.285 164.387Z" fill="#4488E0"/>
<path d="M193.091 161.555C193.193 161.555 193.294 161.532 193.385 161.486C193.477 161.44 193.556 161.374 193.617 161.293L195.23 159.144C195.282 159.075 195.32 158.997 195.341 158.913C195.363 158.83 195.367 158.743 195.355 158.657C195.343 158.572 195.314 158.49 195.27 158.416C195.226 158.341 195.168 158.276 195.099 158.225C195.03 158.173 194.951 158.135 194.867 158.114C194.784 158.092 194.697 158.088 194.611 158.1C194.526 158.112 194.443 158.141 194.369 158.185C194.295 158.229 194.23 158.287 194.178 158.356L193.123 159.761L190.412 155.701C190.364 155.629 190.303 155.567 190.231 155.519C190.159 155.471 190.079 155.438 189.994 155.421C189.909 155.404 189.822 155.404 189.737 155.421C189.653 155.437 189.572 155.471 189.5 155.519C189.428 155.566 189.367 155.628 189.319 155.7C189.271 155.771 189.237 155.852 189.22 155.936C189.203 156.021 189.203 156.108 189.22 156.193C189.237 156.277 189.27 156.358 189.318 156.43L192.544 161.263C192.602 161.35 192.681 161.422 192.773 161.473C192.865 161.524 192.968 161.552 193.073 161.555L193.091 161.555Z" fill="white"/>
<path d="M211.901 164.387C208.635 164.387 205.988 161.743 205.988 158.482C205.988 155.22 208.635 152.576 211.901 152.576C215.166 152.576 217.813 155.22 217.813 158.482C217.813 161.743 215.166 164.387 211.901 164.387Z" fill="#F2F2F2"/>
<path d="M232.553 184.535H340.596C341.224 184.536 341.825 184.785 342.268 185.229C342.711 185.672 342.96 186.273 342.96 186.9C342.96 187.526 342.711 188.127 342.268 188.57C341.825 189.014 341.224 189.263 340.596 189.264H232.553C231.925 189.264 231.323 189.015 230.879 188.572C230.435 188.128 230.185 187.527 230.185 186.9C230.185 186.272 230.435 185.671 230.879 185.227C231.323 184.784 231.925 184.535 232.553 184.535H232.553Z" fill="#E6E6E6"/>
<path d="M192.796 192.982C189.53 192.982 186.883 190.338 186.883 187.076C186.883 183.815 189.53 181.171 192.796 181.171C196.061 181.171 198.708 183.815 198.708 187.076C198.708 190.338 196.061 192.982 192.796 192.982Z" fill="#F2F2F2"/>
<path d="M193.602 190.15C193.704 190.15 193.805 190.126 193.896 190.081C193.988 190.035 194.067 189.969 194.128 189.887L195.741 187.739C195.846 187.6 195.891 187.425 195.866 187.252C195.842 187.08 195.749 186.924 195.61 186.819C195.47 186.715 195.295 186.67 195.122 186.695C194.95 186.719 194.794 186.811 194.689 186.951L193.634 188.356L190.924 184.295C190.876 184.224 190.814 184.162 190.742 184.114C190.671 184.066 190.59 184.033 190.505 184.016C190.421 183.999 190.333 183.999 190.249 184.015C190.164 184.032 190.083 184.065 190.012 184.113C189.94 184.161 189.878 184.223 189.83 184.294C189.782 184.366 189.748 184.446 189.731 184.531C189.715 184.616 189.714 184.703 189.731 184.787C189.748 184.872 189.781 184.952 189.829 185.024L193.055 189.858C193.113 189.945 193.192 190.017 193.284 190.068C193.376 190.119 193.479 190.147 193.584 190.15L193.602 190.15Z" fill="white"/>
<path d="M212.412 192.982C209.147 192.982 206.5 190.338 206.5 187.076C206.5 183.815 209.147 181.171 212.412 181.171C215.677 181.171 218.324 183.815 218.324 187.076C218.324 190.338 215.677 192.982 212.412 192.982Z" fill="#F2F2F2"/>
</g>
<defs>
<clipPath id="clip0_405_3560">
<rect width="384" height="285" fill="white" transform="matrix(-1 0 0 1 384 13)"/>
</clipPath>
</defs>
</svg>